<svg id="visual" viewBox="0 0 900 600" width="900" height="600" xmlns="http://www.w3.org/2000/svg" xmlns:xlink="http://www.w3.org/1999/xlink" version="1.1"><rect x="0" y="0" width="900" height="600" fill="#ffffff"></rect><defs><linearGradient id="grad1_0" x1="33.3%" y1="100%" x2="100%" y2="0%"><stop offset="20%" stop-color="#0066ff" stop-opacity="1"></stop><stop offset="80%" stop-color="#0066ff" stop-opacity="1"></stop></linearGradient></defs><defs><linearGradient id="grad1_1" x1="33.3%" y1="100%" x2="100%" y2="0%"><stop offset="20%" stop-color="#0066ff" stop-opacity="1"></stop><stop offset="80%" stop-color="#ffffff" stop-opacity="1"></stop></linearGradient></defs><defs><linearGradient id="grad2_0" x1="0%" y1="100%" x2="66.7%" y2="0%"><stop offset="20%" stop-color="#0066ff" stop-opacity="1"></stop><stop offset="80%" stop-color="#0066ff" stop-opacity="1"></stop></linearGradient></defs><defs><linearGradient id="grad2_1" x1="0%" y1="100%" x2="66.7%" y2="0%"><stop offset="20%" stop-color="#ffffff" stop-opacity="1"></stop><stop offset="80%" stop-color="#0066ff" stop-opacity="1"></stop></linearGradient></defs><g transform="translate(900, 600)"><path d="M-351.5 0C-336.2 -34.5 -320.9 -69 -307.2 -99.8C-293.5 -130.7 -281.3 -157.9 -267.8 -194.6C-254.3 -231.2 -239.4 -277.3 -206.6 -284.4C-173.9 -291.5 -123.3 -259.7 -85.9 -264.4C-48.5 -269.1 -24.2 -310.3 0 -351.5L0 0Z" fill="#acafff"></path><path d="M-175.8 0C-168.1 -17.2 -160.5 -34.5 -153.6 -49.9C-146.7 -65.3 -140.7 -79 -133.9 -97.3C-127.1 -115.6 -119.7 -138.6 -103.3 -142.2C-86.9 -145.8 -61.7 -129.8 -43 -132.2C-24.2 -134.5 -12.1 -155.2 0 -175.8L0 0Z" fill="#0066ff"></path></g><g transform="translate(0, 0)"><path d="M351.5 0C317.8 25.3 284 50.7 280.6 91.2C277.1 131.7 303.9 187.3 284.4 206.6C264.9 225.9 199 208.8 164.6 226.5C130.2 244.2 127.2 296.7 105.1 323.4C82.9 350 41.4 350.8 0 351.5L0 0Z" fill="#acafff"></path><path d="M175.8 0C158.9 12.7 142 25.3 140.3 45.6C138.5 65.8 152 93.7 142.2 103.3C132.4 113 99.5 104.4 82.3 113.3C65.1 122.1 63.6 148.4 52.5 161.7C41.4 175 20.7 175.4 0 175.8L0 0Z" fill="#0066ff"></path></g></svg>